<?xml version="1.0" encoding="iso-8859-1"?>
<!-- Generator: Adobe Illustrator 19.0.0, SVG Export Plug-In . SVG Version: 6.00 Build 0)  -->
<svg version="1.1" id="Capa_1" xmlns="http://www.w3.org/2000/svg" xmlns:xlink="http://www.w3.org/1999/xlink" x="0px" y="0px"
	 viewBox="0 0 512 512" style="enable-background:new 0 0 512 512;" xml:space="preserve">
<circle style="fill:#FAD87C;" cx="256" cy="256" r="248.5"/>
<path style="fill:#FEBE40;" d="M396.483,94.307L277.828,212.962c-2.52,2.52-6.828,0.735-6.828-2.828v-167.8
	c0-2.358,2.028-4.19,4.377-3.986c44.649,3.892,86.509,21.231,120.83,50.046C398.012,89.91,398.15,92.64,396.483,94.307z"/>
<path style="fill:#FC9642;" d="M396.48,94.31l-18.53,18.53C348.67,87.88,311.66,71.74,271,68.53v-26.2c0-2.35,2.03-4.19,4.38-3.98
	c44.65,3.89,86.51,21.23,120.83,50.04C398.01,89.91,398.15,92.64,396.48,94.31z"/>
<path style="fill:#FEBE40;" d="M236.623,38.348c2.349-0.205,4.377,1.628,4.377,3.986v167.8c0,3.564-4.309,5.348-6.828,2.828
	L115.517,94.307c-1.667-1.667-1.529-4.397,0.277-5.913C150.114,59.579,191.974,42.24,236.623,38.348z"/>
<path style="fill:#FC9642;" d="M241,42.33v26.2c-40.66,3.21-77.67,19.35-106.95,44.31l-18.53-18.53c-1.67-1.67-1.53-4.4,0.27-5.92
	c34.32-28.81,76.18-46.15,120.83-50.04C238.97,38.14,241,39.98,241,42.33z"/>
<path style="fill:#FEBE40;" d="M212.962,234.172c2.52,2.52,0.735,6.828-2.828,6.828h-167.8c-2.358,0-4.19-2.028-3.986-4.377
	c3.892-44.649,21.231-86.509,50.046-120.83c1.516-1.806,4.246-1.944,5.913-0.277L212.962,234.172z"/>
<path style="fill:#FC9642;" d="M112.84,134.05C87.88,163.33,71.74,200.34,68.53,241h-26.2c-2.35,0-4.19-2.03-3.98-4.38
	c3.89-44.65,21.23-86.51,50.04-120.83c1.52-1.8,4.25-1.94,5.92-0.27L112.84,134.05z"/>
<path style="fill:#FEBE40;" d="M210.133,271c3.564,0,5.348,4.309,2.828,6.828L94.307,396.483c-1.667,1.667-4.397,1.529-5.913-0.277
	c-28.815-34.321-46.154-76.18-50.046-120.83c-0.205-2.349,1.628-4.377,3.986-4.377h167.799V271z"/>
<path style="fill:#FC9642;" d="M112.84,377.95l-18.53,18.53c-1.67,1.67-4.4,1.53-5.92-0.27c-28.81-34.32-46.15-76.18-50.04-120.83
	c-0.21-2.35,1.63-4.38,3.98-4.38h26.2C71.74,311.66,87.88,348.67,112.84,377.95z"/>
<path style="fill:#FEBE40;" d="M241,301.867v167.8c0,2.358-2.028,4.19-4.377,3.986c-44.649-3.892-86.509-21.231-120.83-50.046
	c-1.806-1.516-1.944-4.246-0.277-5.913L234.17,299.04C236.691,296.519,241,298.303,241,301.867z"/>
<path style="fill:#FC9642;" d="M241,443.47v26.2c0,2.35-2.03,4.19-4.38,3.98c-44.65-3.89-86.51-21.23-120.83-50.04
	c-1.8-1.52-1.94-4.25-0.27-5.92l18.53-18.53C163.33,424.12,200.34,440.26,241,443.47z"/>
<path style="fill:#FEBE40;" d="M396.206,423.606c-34.321,28.815-76.18,46.154-120.83,50.046c-2.349,0.205-4.377-1.628-4.377-3.986
	v-167.8c0-3.564,4.309-5.348,6.828-2.828l118.654,118.654C398.15,419.36,398.012,422.09,396.206,423.606z"/>
<path style="fill:#FC9642;" d="M396.21,423.61c-34.32,28.81-76.18,46.15-120.83,50.04c-2.35,0.21-4.38-1.63-4.38-3.98v-26.2
	c40.66-3.21,77.67-19.35,106.95-44.31l18.53,18.53C398.15,419.36,398.01,422.09,396.21,423.61z"/>
<path style="fill:#FEBE40;" d="M473.652,275.377c-3.892,44.649-21.231,86.509-50.046,120.83c-1.516,1.806-4.246,1.944-5.913,0.277
	L299.038,277.828c-2.52-2.52-0.735-6.828,2.828-6.828h167.8C472.024,271,473.857,273.028,473.652,275.377z"/>
<path style="fill:#FC9642;" d="M473.65,275.38c-3.89,44.65-21.23,86.51-50.04,120.83c-1.52,1.8-4.25,1.94-5.92,0.27l-18.53-18.53
	c24.96-29.28,41.1-66.29,44.31-106.95h26.2C472.02,271,473.86,273.03,473.65,275.38z"/>
<path style="fill:#FEBE40;" d="M469.667,241h-167.8c-3.564,0-5.348-4.309-2.828-6.828l118.654-118.654
	c1.667-1.667,4.397-1.529,5.913,0.277c28.815,34.321,46.154,76.18,50.046,120.83C473.857,238.972,472.024,241,469.667,241z"/>
<path style="fill:#FC9642;" d="M473.65,236.62c0.21,2.35-1.63,4.38-3.98,4.38h-26.2c-3.21-40.66-19.35-77.67-44.31-106.95
	l18.53-18.53c1.67-1.67,4.4-1.53,5.92,0.27C452.42,150.11,469.76,191.97,473.65,236.62z"/>
<path d="M437.02,74.98C388.667,26.629,324.38,0,256,0S123.333,26.629,74.98,74.98C26.629,123.333,0,187.62,0,256
	s26.629,132.667,74.98,181.02C123.333,485.371,187.62,512,256,512s132.667-26.629,181.02-74.98C485.371,388.667,512,324.38,512,256
	S485.371,123.333,437.02,74.98z M426.413,426.413C380.894,471.932,320.374,497,256,497s-124.894-25.068-170.413-70.587
	S15,320.374,15,256S40.068,131.106,85.587,85.587S191.626,15,256,15s124.894,25.068,170.413,70.587S497,191.626,497,256
	S471.932,380.894,426.413,426.413z"/>
<path d="M270.599,220.758c1.431,0.593,2.929,0.881,4.413,0.881c2.986,0,5.915-1.169,8.12-3.374l63.899-63.9
	c2.929-2.929,2.929-7.678,0-10.606c-2.929-2.929-7.678-2.929-10.606,0L278.5,201.684V46.182
	c40.469,4.253,78.337,19.938,109.958,45.543l-29.208,29.208c-2.929,2.929-2.929,7.678,0,10.606c2.929,2.929,7.678,2.929,10.606,0
	l31.93-31.93c2.271-2.271,3.494-5.415,3.354-8.624c-0.14-3.221-1.639-6.26-4.112-8.336c-35.541-29.84-78.766-47.743-125.001-51.774
	c-3.214-0.276-6.424,0.809-8.801,2.987c-2.368,2.17-3.726,5.258-3.726,8.47v167.8C263.5,214.801,266.287,218.971,270.599,220.758z"
	/>
<path d="M235.973,30.876L235.973,30.876c-46.236,4.031-89.46,21.934-125.001,51.774c-2.473,2.076-3.972,5.115-4.112,8.336
	c-0.14,3.209,1.083,6.353,3.354,8.624l118.654,118.654c2.206,2.206,5.133,3.374,8.12,3.374c1.483,0,2.981-0.288,4.413-0.881
	c4.313-1.787,7.099-5.957,7.099-10.625v-167.8c0-3.212-1.358-6.3-3.726-8.47C242.397,31.684,239.188,30.597,235.973,30.876z
	 M233.5,201.684L123.542,91.726c31.621-25.605,69.489-41.29,109.958-45.543V201.684z"/>
<path d="M42.333,248.5h167.8c4.668,0,8.838-2.787,10.625-7.099c1.786-4.313,0.808-9.232-2.493-12.533L99.61,110.214
	c-2.271-2.271-5.423-3.5-8.624-3.354c-3.221,0.14-6.259,1.638-8.337,4.111c-29.84,35.542-47.743,78.766-51.774,125.002
	c-0.28,3.217,0.809,6.424,2.987,8.801C36.034,247.142,39.121,248.5,42.333,248.5z M91.726,123.542L201.684,233.5H46.182
	C50.436,193.031,66.121,155.162,91.726,123.542z"/>
<path d="M220.758,270.599c-1.787-4.313-5.957-7.099-10.625-7.099H128.5c-4.142,0-7.5,3.358-7.5,7.5s3.358,7.5,7.5,7.5h73.184
	L91.726,388.458C66.12,356.837,50.435,318.968,46.182,278.5H95.75c4.142,0,7.5-3.358,7.5-7.5s-3.358-7.5-7.5-7.5H42.333
	c-3.212,0-6.3,1.358-8.47,3.726c-2.179,2.377-3.268,5.584-2.987,8.802c4.031,46.235,21.934,89.46,51.775,125.002
	c2.077,2.473,5.115,3.971,8.336,4.111c0.166,0.007,0.33,0.011,0.495,0.011c3.035,0,5.974-1.211,8.128-3.365l118.654-118.654
	C221.565,279.831,222.544,274.912,220.758,270.599z"/>
<path d="M241.401,291.242c-4.311-1.785-9.231-0.807-12.533,2.493L110.214,412.39c-2.271,2.271-3.494,5.415-3.354,8.624
	c0.14,3.221,1.639,6.26,4.112,8.336c35.541,29.84,78.766,47.743,125.001,51.774c0.333,0.029,0.665,0.043,0.997,0.043
	c2.874,0,5.673-1.078,7.804-3.031c2.368-2.17,3.726-5.258,3.726-8.47v-167.8C248.5,297.199,245.713,293.029,241.401,291.242z
	 M233.5,465.818c-40.469-4.253-78.337-19.938-109.958-45.543L233.5,310.316V465.818z"/>
<path d="M283.132,293.735c-3.301-3.301-8.219-4.28-12.533-2.493c-4.313,1.787-7.099,5.957-7.099,10.625v17.8
	c0,4.142,3.358,7.5,7.5,7.5s7.5-3.358,7.5-7.5v-9.35l109.958,109.958c-31.621,25.605-69.49,41.291-109.958,45.543V351.75
	c0-4.142-3.358-7.5-7.5-7.5s-7.5,3.358-7.5,7.5v117.917c0,3.212,1.358,6.3,3.726,8.47c2.131,1.954,4.93,3.031,7.805,3.031
	c0.332,0,0.665-0.015,0.997-0.043c46.235-4.031,89.46-21.934,125.001-51.774c2.473-2.076,3.972-5.115,4.112-8.336
	c0.14-3.209-1.083-6.353-3.354-8.624L283.132,293.735z"/>
<path d="M469.667,263.5h-167.8c-4.668,0-8.838,2.787-10.625,7.099c-1.786,4.313-0.808,9.232,2.493,12.533L412.39,401.786
	c2.154,2.154,5.093,3.365,8.128,3.365c0.165,0,0.33-0.003,0.495-0.011c3.221-0.14,6.259-1.638,8.337-4.111
	c29.84-35.542,47.743-78.766,51.774-125.001l0,0c0.28-3.217-0.809-6.424-2.987-8.801C475.966,264.858,472.879,263.5,469.667,263.5z
	 M420.274,388.458L310.316,278.5h155.501C461.564,318.969,445.879,356.838,420.274,388.458z"/>
<path d="M291.242,241.401c1.787,4.313,5.957,7.099,10.625,7.099h167.8c3.212,0,6.3-1.358,8.47-3.726
	c2.179-2.377,3.268-5.584,2.987-8.802c-4.031-46.235-21.934-89.46-51.775-125.002c-2.077-2.473-5.115-3.971-8.336-4.111
	c-3.213-0.139-6.353,1.083-8.624,3.354L293.735,228.868C290.435,232.169,289.456,237.088,291.242,241.401z M420.274,123.542
	c25.605,31.621,41.291,69.49,45.543,109.958H310.316L420.274,123.542z"/>
<g>
</g>
<g>
</g>
<g>
</g>
<g>
</g>
<g>
</g>
<g>
</g>
<g>
</g>
<g>
</g>
<g>
</g>
<g>
</g>
<g>
</g>
<g>
</g>
<g>
</g>
<g>
</g>
<g>
</g>
</svg>
